<?xml version="1.0" encoding="UTF-8" standalone="no"?><!DOCTYPE svg PUBLIC "-//W3C//DTD SVG 1.1//EN" "http://www.w3.org/Graphics/SVG/1.1/DTD/svg11.dtd"><svg width="100%" height="100%" viewBox="0 0 4500 4500" version="1.1" xmlns="http://www.w3.org/2000/svg" xmlns:xlink="http://www.w3.org/1999/xlink" xml:space="preserve" xmlns:serif="http://www.serif.com/" style="fill-rule:evenodd;clip-rule:evenodd;stroke-linejoin:round;stroke-miterlimit:2;"><rect id="Mesa-de-trabajo11" serif:id="Mesa de trabajo11" x="0" y="0" width="4500" height="4500" style="fill:none;"/><g id="Mesa-de-trabajo111" serif:id="Mesa de trabajo11"><path d="M676.92,1936.501l-65.064,-713.972l-1.893,0l-21.029,731.38l87.986,-17.408Zm43.993,489.521l-21.029,-236.056l-120.539,23.252l-3.827,168.318l-378.859,60.002c82.307,-464.417 133.955,-919.081 156.918,-1366.091l549.111,-98.686c13.375,371.493 78.439,824.305 195.15,1356.378l-376.925,92.883Z" style="fill:#ec1c24;fill-rule:nonzero;"/><path d="M1832.531,2265.445c-170.293,15.474 -375.032,59.961 -618.002,131.568l-51.689,-1335.102l308.075,-59.961c-7.655,160.581 -11.482,321.162 -13.416,481.784c-1.893,160.581 1.934,323.096 9.589,483.718l317.623,-52.265l47.82,350.257Z" style="fill:#ec1c24;fill-rule:nonzero;"/><path d="M2599.735,2265.445c-170.293,15.474 -374.991,59.961 -618.002,131.568l-51.648,-1335.102l308.034,-59.961c-7.655,160.581 -11.482,321.162 -13.375,481.784c-1.934,160.581 1.893,323.096 9.548,483.718l317.623,-52.265l47.82,350.257Z" style="fill:#ec1c24;fill-rule:nonzero;"/><path d="M3399.479,2265.445c-170.293,15.474 -388.407,59.961 -654.341,131.568l-63.171,-1354.444l602.693,-92.883l49.755,352.192c-112.884,9.63 -221.941,23.169 -329.063,40.619c-1.934,36.75 -1.934,71.566 -1.934,106.423l0,106.382l285.07,-65.763l38.273,261.201c-53.582,9.671 -107.123,19.383 -158.77,30.947l-160.746,34.816c0,25.186 0,50.331 1.934,75.517l3.786,75.434l336.759,-52.265l49.755,350.257Z" style="fill:#ec1c24;fill-rule:nonzero;"/><path d="M4019.345,2397.013l-36.339,-65.804l-78.439,-135.395c-32.552,-56.133 -74.652,-131.609 -124.366,-230.295c5.72,145.107 15.268,290.256 28.684,431.494l-279.35,90.949l-51.648,-1422.183l308.034,-63.829c28.684,189.594 76.504,394.703 143.502,617.22c21.029,73.5 43.993,133.502 66.957,178.03l-28.684,-735.29l306.1,-59.961c-9.548,218.649 -13.375,435.322 -11.482,654.011c1.934,218.607 13.416,439.19 36.38,657.839l-279.35,83.212Z" style="fill:#ec1c24;fill-rule:nonzero;"/><path d="M381.092,2584.084l204.039,312.232l0,-315.112c0,-20.494 4.362,-35.845 13.046,-46.092c8.683,-10.247 20.412,-15.391 35.186,-15.391c15.227,0 27.285,5.144 36.092,15.391c8.807,10.247 13.21,25.597 13.21,46.092l0,416.679c0,46.503 -19.054,69.755 -57.162,69.755c-9.548,0 -18.108,-1.399 -25.721,-4.157c-7.613,-2.757 -14.774,-7.12 -21.441,-13.21c-6.667,-5.967 -12.881,-13.046 -18.56,-21.112c-5.761,-8.066 -11.441,-16.338 -17.202,-24.733l-199.018,-308.692l0,310.462c0,20.248 -4.65,35.557 -13.91,45.886c-9.301,10.371 -21.235,15.556 -35.762,15.556c-14.98,0 -27.038,-5.226 -36.092,-15.721c-9.054,-10.494 -13.581,-25.68 -13.581,-45.722l0,-408.737c0,-17.367 1.893,-30.989 5.72,-40.865c4.527,-10.823 12.058,-19.671 22.511,-26.544c10.494,-6.914 21.811,-10.33 33.952,-10.33c9.548,0 17.696,1.605 24.486,4.733c6.79,3.128 12.758,7.325 17.861,12.634c5.144,5.309 10.371,12.181 15.721,20.577c5.35,8.436 10.906,17.243 16.626,26.421" style="fill:#231f20;fill-rule:nonzero;"/><path d="M800.261,2839.59l0,-254.781c0,-21.688 4.815,-37.944 14.486,-48.808c9.63,-10.823 22.305,-16.256 38.067,-16.256c16.42,0 29.466,5.432 39.096,16.256c9.671,10.865 14.486,27.12 14.486,48.808l0,260.584c0,29.631 3.251,54.364 9.836,74.241c6.543,19.877 18.149,35.31 34.816,46.298c16.667,10.947 40.042,16.42 70.043,16.42c41.442,0 70.784,-11.111 87.904,-33.417c17.161,-22.264 25.721,-56.092 25.721,-101.402l0,-262.724c0,-21.935 4.774,-38.232 14.321,-48.973c9.506,-10.741 22.264,-16.091 38.232,-16.091c15.968,0 28.849,5.35 38.767,16.091c9.877,10.741 14.815,27.038 14.815,48.973l0,254.781c0,41.442 -3.992,76.052 -11.976,103.707c-7.984,27.737 -23.046,52.1 -45.187,73.006c-19.054,17.861 -41.236,30.865 -66.463,39.055c-25.268,8.19 -54.775,12.264 -88.603,12.264c-40.289,0 -74.941,-4.362 -103.995,-13.169c-29.054,-8.766 -52.759,-22.388 -71.113,-40.824c-18.354,-18.437 -31.812,-42.059 -40.372,-70.825c-8.601,-28.807 -12.881,-63.212 -12.881,-103.213" style="fill:#231f20;fill-rule:nonzero;"/><path d="M1696.485,2617.332l-115.806,0l0,384.909c0,22.182 -4.856,38.602 -14.651,49.343c-9.753,10.741 -22.346,16.05 -37.861,16.05c-15.721,0 -28.519,-5.391 -38.396,-16.256c-9.918,-10.823 -14.856,-27.244 -14.856,-49.137l0,-384.909l-115.765,0c-18.108,0 -31.565,-4.033 -40.372,-12.099c-8.848,-8.066 -13.21,-18.725 -13.21,-32.017c0,-13.704 4.568,-24.569 13.745,-32.511c9.177,-7.984 22.47,-11.935 39.837,-11.935l337.335,0c18.313,0 31.976,4.115 40.907,12.305c8.93,8.19 13.416,18.931 13.416,32.141c0,13.293 -4.527,23.951 -13.581,32.017c-9.054,8.066 -22.634,12.099 -40.742,12.099" style="fill:#231f20;fill-rule:nonzero;"/><path d="M2017.742,2609.365l-97.904,0l0,145.642l95.065,0c25.474,0 46.915,-2.222 64.323,-6.667c17.367,-4.486 30.659,-12.058 39.837,-22.799c9.177,-10.659 13.745,-25.474 13.745,-44.24c0,-14.692 -3.704,-27.655 -11.07,-38.849c-7.366,-11.235 -17.655,-19.589 -30.742,-25.104c-12.387,-5.309 -36.791,-7.984 -73.253,-7.984m-60.743,222.64l-37.162,0l0,170.211c0,22.429 -4.897,38.931 -14.651,49.508c-9.753,10.618 -22.511,15.926 -38.232,15.926c-16.914,0 -30.001,-5.556 -39.302,-16.626c-9.301,-11.07 -13.951,-27.326 -13.951,-48.808l0,-407.667c0,-23.128 5.103,-39.878 15.35,-50.248c10.247,-10.371 26.832,-15.515 49.672,-15.515l172.598,0c23.828,0 44.199,1.029 61.113,3.045c16.914,2.058 32.182,6.214 45.763,12.47c16.42,6.996 30.947,16.996 43.582,30.001c12.634,13.005 22.223,28.149 28.766,45.351c6.543,17.243 9.836,35.515 9.836,54.734c0,39.549 -11.029,71.113 -33.087,94.735c-22.017,23.622 -55.434,40.33 -100.209,50.207c18.807,10.165 36.832,25.104 53.952,44.857c17.161,19.754 32.47,40.783 45.927,63.047c13.457,22.305 23.951,42.388 31.441,60.331c7.49,17.984 11.235,30.33 11.235,37.079c0,6.996 -2.181,13.91 -6.585,20.783c-4.403,6.873 -10.412,12.305 -18.066,16.256c-7.613,3.992 -16.42,5.967 -26.421,5.967c-11.935,0 -21.935,-2.84 -30.001,-8.519c-8.148,-5.597 -15.103,-12.799 -20.947,-21.482c-5.803,-8.642 -13.745,-21.441 -23.746,-38.314l-42.512,-71.566c-15.268,-26.215 -28.89,-46.257 -40.907,-59.961c-12.058,-13.786 -24.281,-23.169 -36.627,-28.231c-12.387,-5.021 -28.026,-7.572 -46.833,-7.572" style="fill:#231f20;fill-rule:nonzero;"/><path d="M2345.797,3002.233l0,-417.42c0,-21.688 4.897,-37.944 14.651,-48.808c9.753,-10.823 22.388,-16.256 37.902,-16.256c15.926,0 28.849,5.35 38.767,16.091c9.877,10.7 14.815,27.038 14.815,48.973l0,417.42c0,21.935 -4.938,38.314 -14.815,49.137c-9.918,10.865 -22.84,16.256 -38.767,16.256c-15.268,0 -27.82,-5.432 -37.738,-16.42c-9.877,-10.947 -14.815,-27.285 -14.815,-48.973" style="fill:#231f20;fill-rule:nonzero;"/><path d="M2911.481,2617.332l-115.806,0l0,384.909c0,22.182 -4.856,38.602 -14.651,49.343c-9.753,10.741 -22.346,16.05 -37.861,16.05c-15.721,0 -28.519,-5.391 -38.396,-16.256c-9.918,-10.823 -14.856,-27.244 -14.856,-49.137l0,-384.909l-115.765,0c-18.108,0 -31.565,-4.033 -40.372,-12.099c-8.848,-8.066 -13.21,-18.725 -13.21,-32.017c0,-13.704 4.568,-24.569 13.745,-32.511c9.177,-7.984 22.47,-11.935 39.837,-11.935l337.335,0c18.313,0 31.976,4.115 40.907,12.305c8.93,8.19 13.416,18.931 13.416,32.141c0,13.293 -4.527,23.951 -13.581,32.017c-9.054,8.066 -22.634,12.099 -40.742,12.099" style="fill:#231f20;fill-rule:nonzero;"/><path d="M3033.703,3002.233l0,-417.42c0,-21.688 4.897,-37.944 14.651,-48.808c9.795,-10.823 22.388,-16.256 37.902,-16.256c15.926,0 28.89,5.35 38.767,16.091c9.877,10.7 14.815,27.038 14.815,48.973l0,417.42c0,21.935 -4.938,38.314 -14.815,49.137c-9.877,10.865 -22.84,16.256 -38.767,16.256c-15.268,0 -27.82,-5.432 -37.738,-16.42c-9.877,-10.947 -14.815,-27.285 -14.815,-48.973" style="fill:#231f20;fill-rule:nonzero;"/><path d="M3640.486,2792.255c0,-38.808 -6.214,-72.43 -18.601,-100.826c-12.387,-28.437 -30.083,-49.919 -53.047,-64.529c-23.005,-14.568 -49.384,-21.894 -79.138,-21.894c-21.235,0 -40.824,4.074 -58.808,12.14c-17.984,8.066 -33.458,19.795 -46.421,35.227c-13.005,15.433 -23.252,35.145 -30.783,59.096c-7.49,23.951 -11.235,50.907 -11.235,80.784c0,30.124 3.745,57.327 11.235,81.649c7.531,24.363 18.108,44.569 31.853,60.537c13.663,16.05 29.384,28.026 47.162,36.009c17.737,7.901 37.203,11.893 58.397,11.893c27.161,0 52.1,-6.831 74.858,-20.618c22.758,-13.704 40.865,-34.898 54.323,-63.582c13.457,-28.684 20.206,-63.953 20.206,-105.888m-150.786,-272.519c54.281,0 100.95,11.153 139.881,33.458c38.931,22.264 68.438,53.952 88.439,95.023c20.001,41.112 30.001,89.344 30.001,144.778c0,40.948 -5.473,78.151 -16.42,111.691c-10.947,33.458 -27.408,62.512 -49.302,87.081c-21.935,24.569 -48.849,43.335 -80.784,56.38c-31.935,13.005 -68.479,19.507 -109.674,19.507c-40.989,0 -77.698,-6.708 -110.086,-20.083c-32.388,-13.334 -59.426,-32.182 -81.114,-56.545c-21.688,-24.322 -38.026,-53.623 -49.137,-87.822c-11.07,-34.24 -16.626,-71.196 -16.626,-110.95c0,-40.742 5.803,-78.068 17.326,-112.061c11.564,-33.952 28.314,-62.883 50.248,-86.71c21.894,-23.869 48.602,-42.141 80.044,-54.775c31.441,-12.675 67.163,-18.972 107.205,-18.972" style="fill:#231f20;fill-rule:nonzero;"/><path d="M3977.822,2584.084l204.039,312.232l0,-315.112c0,-20.494 4.362,-35.845 13.046,-46.092c8.683,-10.247 20.412,-15.391 35.186,-15.391c15.227,0 27.285,5.144 36.092,15.391c8.807,10.247 13.21,25.597 13.21,46.092l0,416.679c0,46.503 -19.054,69.755 -57.162,69.755c-9.548,0 -18.108,-1.399 -25.721,-4.157c-7.613,-2.757 -14.774,-7.12 -21.441,-13.21c-6.667,-5.967 -12.881,-13.046 -18.56,-21.112c-5.72,-8.066 -11.441,-16.338 -17.202,-24.733l-199.018,-308.692l0,310.462c0,20.248 -4.65,35.557 -13.91,45.886c-9.301,10.371 -21.235,15.556 -35.762,15.556c-14.98,0 -27.038,-5.226 -36.05,-15.721c-9.095,-10.494 -13.622,-25.68 -13.622,-45.722l0,-408.737c0,-17.367 1.893,-30.989 5.72,-40.865c4.527,-10.823 12.058,-19.671 22.511,-26.544c10.494,-6.914 21.811,-10.33 33.952,-10.33c9.548,0 17.696,1.605 24.486,4.733c6.79,3.128 12.758,7.325 17.861,12.634c5.144,5.309 10.371,12.181 15.721,20.577c5.35,8.436 10.906,17.243 16.626,26.421" style="fill:#231f20;fill-rule:nonzero;"/><rect x="220.782" y="3270.179" width="35.186" height="275.605" style="fill:#808181;"/><path d="M317.773,3545.8l0,-275.605l38.396,0l87.328,139.469c20.206,32.264 35.968,61.319 48.932,89.509l0.782,-0.412c-3.21,-36.75 -4.033,-70.331 -4.033,-113.254l0,-115.312l33.129,0l0,275.605l-35.557,0l-86.505,-139.84c-19.013,-30.659 -37.203,-62.142 -50.948,-91.978l-1.193,0.37c2.017,34.775 2.84,67.862 2.84,113.707l0,117.74l-33.17,0Z" style="fill:#808181;fill-rule:nonzero;"/><path d="M635.787,3300.468l-82.883,0l0,-30.248l201.734,0l0,30.248l-83.295,0l0,245.316l-35.557,0l0,-245.316Z" style="fill:#808181;fill-rule:nonzero;"/><path d="M926.335,3416.599l-105.929,0l0,99.345l118.069,0l0,29.877l-153.214,0l0,-275.605l147.165,0l0,29.836l-112.02,0l0,87.081l105.929,0l0,29.466Z" style="fill:#808181;fill-rule:nonzero;"/><path d="M984.447,3270.216l35.186,0l0,245.728l116.423,0l0,29.877l-151.61,0l0,-275.605Z" style="fill:#808181;fill-rule:nonzero;"/><path d="M1175.552,3270.216l35.186,0l0,245.728l116.423,0l0,29.877l-151.61,0l0,-275.605Z" style="fill:#808181;fill-rule:nonzero;"/><rect x="1366.661" y="3270.179" width="35.186" height="275.605" style="fill:#808181;"/><path d="M1671.007,3533.52c-15.762,5.72 -46.874,15.144 -83.665,15.144c-41.236,0 -75.229,-10.618 -101.896,-36.421c-23.416,-22.881 -37.985,-59.673 -37.985,-102.596c0.412,-82.184 56.175,-142.309 147.576,-142.309c31.482,0 56.175,6.955 67.903,12.675l-8.519,29.054c-14.527,-6.543 -32.717,-11.893 -60.208,-11.893c-66.298,0 -109.592,41.73 -109.592,110.826c0,69.92 41.647,111.238 105.147,111.238c23.005,0 38.808,-3.292 46.874,-7.366l0,-82.184l-55.393,0l0,-28.643l89.756,0l0,132.473Z" style="fill:#808181;fill-rule:nonzero;"/><path d="M1866.141,3416.599l-105.929,0l0,99.345l118.069,0l0,29.877l-153.214,0l0,-275.605l147.124,0l0,29.836l-111.979,0l0,87.081l105.929,0l0,29.466Z" style="fill:#808181;fill-rule:nonzero;"/><path d="M1924.241,3545.8l0,-275.605l38.396,0l87.328,139.469c20.206,32.264 35.968,61.319 48.932,89.509l0.782,-0.412c-3.21,-36.75 -4.033,-70.331 -4.033,-113.254l0,-115.312l33.129,0l0,275.605l-35.557,0l-86.505,-139.84c-19.013,-30.659 -37.203,-62.142 -50.948,-91.978l-1.193,0.37c2.017,34.775 2.798,67.862 2.798,113.707l0,117.74l-33.129,0Z" style="fill:#808181;fill-rule:nonzero;"/><path d="M2242.255,3300.468l-82.883,0l0,-30.248l201.734,0l0,30.248l-83.295,0l0,245.316l-35.557,0l0,-245.316Z" style="fill:#808181;fill-rule:nonzero;"/><path d="M2477.776,3545.8l0,-275.605l38.396,0l87.328,139.469c20.206,32.264 35.968,61.319 48.932,89.509l0.782,-0.412c-3.21,-36.75 -4.033,-70.331 -4.033,-113.254l0,-115.312l33.129,0l0,275.605l-35.557,0l-86.505,-139.84c-19.013,-30.659 -37.203,-62.142 -50.948,-91.978l-1.193,0.37c2.017,34.775 2.84,67.862 2.84,113.707l0,117.74l-33.17,0Z" style="fill:#808181;fill-rule:nonzero;"/><path d="M2779.218,3270.216l0,163.132c0,61.771 27.079,87.945 63.459,87.945c40.413,0 66.298,-26.997 66.298,-87.945l0,-163.132l35.598,0l0,160.663c0,84.653 -44.075,119.427 -103.09,119.427c-55.804,0 -97.863,-32.306 -97.863,-117.781l0,-162.309l35.598,0Z" style="fill:#808181;fill-rule:nonzero;"/><path d="M3057.6,3300.468l-82.883,0l0,-30.248l201.734,0l0,30.248l-83.295,0l0,245.316l-35.557,0l0,-245.316Z" style="fill:#808181;fill-rule:nonzero;"/><path d="M3242.252,3399.417l35.968,0c37.614,0 61.442,-20.865 61.442,-52.347c0,-35.598 -25.433,-51.113 -62.636,-51.524c-16.996,0 -29.096,1.646 -34.775,3.292l0,100.579Zm-35.186,-125.559c17.819,-3.622 43.252,-5.679 67.533,-5.679c37.573,0 61.854,6.955 78.809,22.47c13.786,12.264 21.441,31.071 21.441,52.347c0,36.38 -22.634,60.496 -51.36,70.29l0,1.276c21.029,7.325 33.581,26.956 40.042,55.598c8.889,38.437 15.35,65.023 21.029,75.64l-36.38,0c-4.445,-7.778 -10.535,-31.482 -18.19,-65.846c-8.107,-38.026 -22.676,-52.306 -54.611,-53.541l-33.129,0l0,119.386l-35.186,0l0,-271.942Z" style="fill:#808181;fill-rule:nonzero;"/><rect x="3424.83" y="3270.179" width="35.186" height="275.605" style="fill:#808181;"/><path d="M3573.579,3300.468l-82.883,0l0,-30.248l201.734,0l0,30.248l-83.295,0l0,245.316l-35.557,0l0,-245.316Z" style="fill:#808181;fill-rule:nonzero;"/><rect x="3723.028" y="3270.179" width="35.186" height="275.605" style="fill:#808181;"/><path d="M3841.443,3409.652c0,58.85 31.524,111.608 86.916,111.608c55.763,0 87.328,-51.936 87.328,-114.489c0,-54.775 -28.314,-112.02 -86.916,-112.02c-58.232,0 -87.328,54.364 -87.328,114.901m211.447,-4.486c0,94.859 -57.039,145.148 -126.547,145.148c-71.977,0 -122.514,-56.463 -122.514,-139.881c0,-87.492 53.788,-144.737 126.547,-144.737c74.406,0 122.514,57.697 122.514,139.469" style="fill:#808181;fill-rule:nonzero;"/><path d="M4098.809,3545.8l0,-275.605l38.396,0l87.328,139.469c20.206,32.264 35.968,61.319 48.932,89.509l0.782,-0.412c-3.251,-36.75 -4.033,-70.331 -4.033,-113.254l0,-115.312l33.129,0l0,275.605l-35.557,0l-86.505,-139.84c-19.013,-30.659 -37.203,-62.142 -50.948,-91.978l-1.193,0.37c2.017,34.775 2.798,67.862 2.798,113.707l0,117.74l-33.129,0Z" style="fill:#808181;fill-rule:nonzero;"/></g></svg>